# xmcd
#
# Track frame offsets:
#	150
#	12221
#	30287
#	46618
#	60122
#	73256
#	89539
#	101932
#	120242
#	136323
#	147959
#	166670
#	179613
#	191183
#	212837
#	227800
#	242955
#	255166
#	266865
#	279192
#
# Disc length: 3903 seconds
#
# Revision: 1
# Processed by: cddbd v1.5.2PL0 Copyright (c) Steve Scherf et al.
# Submitted via: audiograbber 1.83.01
#
DISCID=150f3d14
DTITLE=West Virginian Railroad - Essential
DYEAR=1998
DGENRE=Country
TTITLE0=Deeper Then Dixie In Love
TTITLE1=Two Long Legs
TTITLE2=Giving Up So Easily
TTITLE3=She's All Over Me
TTITLE4=Jane
TTITLE5=The Day El Paso Died
TTITLE6=Dance The Last Dance
TTITLE7=I Like To Stay Alone
TTITLE8=You
TTITLE9=Deep River
TTITLE10=Family Fair
TTITLE11=Like Me And You
TTITLE12=Lost In My Dreams
TTITLE13=Morning Misty Blue
TTITLE14=Whiskey On My Mind
TTITLE15=Tell Me I Was Dreaming
TTITLE16=My Livin' To Do
TTITLE17=Heartache In High Heels
TTITLE18=Estoy
TTITLE19=What'll Do With Me
EXTD=Hitsound Records, Netherlands
EXTT0=
EXTT1=
EXTT2=
EXTT3=
EXTT4=
EXTT5=
EXTT6=
EXTT7=
EXTT8=
EXTT9=
EXTT10=
EXTT11=
EXTT12=
EXTT13=
EXTT14=
EXTT15=
EXTT16=
EXTT17=
EXTT18=
EXTT19=
PLAYORDER=
